name C:\Users\u0101727\Documents\MyRepositories\upper-imu-dc\Results\main_tracking\Case_59\kinematics.mot
datacolumns 10
datarows 56
range 4.62000000 5.17000000
endheader 
time	clav_prot	clav_elev	scapula_abduction	scapula_elevation	scapula_upward_rot	scapula_winging	plane_elv	shoulder_elv	axial_rot	
          4.62000000	        -33.08915355	          3.87475783	        -13.14559917	         -4.32696034	         41.13279145	         -4.97326103	         -4.88725202	         70.80006709	         11.94398788	
          4.63000000	        -33.18533062	          3.83209576	        -13.10896436	         -4.39316374	         41.36468334	         -5.02851861	         -4.69213305	         71.07289406	         11.95370126	
          4.64000000	        -33.28100214	          3.78937478	        -13.07230728	         -4.45888140	         41.59538237	         -5.08305197	         -4.49509659	         71.34289533	         11.96501954	
          4.65000000	        -33.37621788	          3.74665248	        -13.03584455	         -4.52406507	         41.82474964	         -5.13687522	         -4.29604065	         71.61003636	         11.97820794	
          4.66000000	        -33.47102440	          3.70397207	        -12.99969936	         -4.58868982	         42.05275159	         -5.19001609	         -4.09494189	         71.87425944	         11.99332141	
          4.67000000	        -33.56546314	          3.66135952	        -12.96390216	         -4.65275438	         42.27945381	         -5.24251209	         -3.89185033	         72.13548335	         12.01021307	
          4.68000000	        -33.65956824	          3.61882378	        -12.92839743	         -4.71627857	         42.50500813	         -5.29440667	         -3.68687834	         72.39360611	         12.02855829	
          4.69000000	        -33.75336488	          3.57635976	        -12.89305735	         -4.77929830	         42.72963297	         -5.34574542	         -3.48018353	         72.64851092	         12.04789468	
          4.70000000	        -33.84686831	          3.53395267	        -12.85770133	         -4.84185903	         42.95358844	         -5.39657250	         -3.27194672	         72.90007488	         12.06767483	
          4.71000000	        -33.94008314	          3.49158346	        -12.82211762	         -4.90400867	         43.17714972	         -5.44692749	         -3.06234903	         73.14817844	         12.08732312	
          4.72000000	        -34.03300262	          3.44923406	        -12.78608393	         -4.96579095	         43.40058173	         -5.49684288	         -2.85155145	         73.39271390	         12.10628891	
          4.73000000	        -34.12560807	          3.40689141	        -12.74938490	         -5.02724015	         43.62411740	         -5.54634195	         -2.63967908	         73.63359235	         12.12409077	
          4.74000000	        -34.21786869	          3.36455023	        -12.71182638	         -5.08837760	         43.84794037	         -5.59543738	         -2.42681057	         73.87074802	         12.14035001	
          4.75000000	        -34.30974216	          3.32221420	        -12.67324664	         -5.14920983	         44.07217264	         -5.64413055	         -2.21297240	         74.10414039	         12.15481333	
          4.76000000	        -34.40117635	          3.27989555	        -12.63352538	         -5.20972860	         44.29686665	         -5.69241137	         -1.99813737	         74.33375407	         12.16736621	
          4.77000000	        -34.49211250	          3.23761303	        -12.59259149	         -5.26991268	         44.52200123	         -5.74025878	         -1.78222637	         74.55959659	         12.17803838	
          4.78000000	        -34.58248947	          3.19538838	        -12.55042907	         -5.32973110	         44.74748167	         -5.78764171	         -1.56511342	         74.78169462	         12.18700150	
          4.79000000	        -34.67224861	          3.15324250	        -12.50708058	         -5.38914721	         44.97314434	         -5.83452071	         -1.34663361	         75.00008940	         12.19455873	
          4.80000000	        -34.76133832	          3.11119241	        -12.46264587	         -5.44812262	         45.19876635	         -5.88085042	         -1.12659378	         75.21483313	         12.20112641	
          4.81000000	        -34.84971770	          3.06924964	        -12.41727606	         -5.50662039	         45.42408030	         -5.92658284	         -0.90478551	         75.42598755	         12.20720788	
          4.82000000	        -34.93735896	          3.02742074	        -12.37116308	         -5.56460702	         45.64879271	         -5.97167114	         -0.68099940	         75.63362447	         12.21336202	
          4.83000000	        -35.02424794	          2.98570953	        -12.32452500	         -5.62205298	         45.87260450	         -6.01607368	         -0.45503963	         75.83782811	         12.22016876	
          4.84000000	        -35.11038277	          2.94412087	        -12.27758886	         -5.67893194	         46.09523124	         -6.05975752	         -0.22673708	         76.03869855	         12.22819504	
          4.85000000	        -35.19577064	          2.90266543	        -12.23057266	         -5.73521872	         46.31642095	         -6.10270125	          0.00403975	         76.23635537	         12.23796426	
          4.86000000	        -35.28042321	          2.86136473	        -12.18366836	         -5.79088638	         46.53596787	         -6.14489677	          0.23737682	         76.43094099	         12.24993145	
          4.87000000	        -35.36435147	          2.82025583	        -12.13702757	         -5.84590314	         46.75372128	         -6.18634988	          0.47330945	         76.62262301	         12.26446581	
          4.88000000	        -35.44756090	          2.77939472	        -12.09075149	         -5.90022954	         46.96958954	         -6.22708005	          0.71182005	         76.81159548	         12.28184053	
          4.89000000	        -35.53004796	          2.73885769	        -12.04488537	         -5.95381684	         47.18353991	         -6.26711913	          0.95283814	         76.99807856	         12.30222923	
          4.90000000	        -35.61179835	          2.69873937	        -11.99941796	         -6.00660757	         47.39559495	         -6.30650928	          1.19624211	         77.18231582	         12.32570739	
          4.91000000	        -35.69278764	          2.65914673	        -11.95428580	         -6.05853892	         47.60582601	         -6.34529970	          1.44186227	         77.36456803	         12.35225721	
          4.92000000	        -35.77298398	          2.62018846	        -11.90938180	         -6.10954926	         47.81434410	         -6.38354218	          1.68948459	         77.54510280	         12.38177466	
          4.93000000	        -35.85235247	          2.58196093	        -11.86456730	         -6.15958715	         48.02128866	         -6.42128570	          1.93885535	         77.72418080	         12.41407853	
          4.94000000	        -35.93086021	          2.54453306	        -11.81968615	         -6.20862110	         48.22681475	         -6.45857062	          2.18968719	         77.90204027	         12.44892180	
          4.95000000	        -36.00848064	          2.50793323	        -11.77457893	         -6.25664789	         48.43107980	         -6.49542340	          2.44166664	         78.07888268	         12.48600568	
          4.96000000	        -36.08519664	          2.47214074	        -11.72909566	         -6.30369771	         48.63423085	         -6.53185269	          2.69446329	         78.25486148	         12.52499605	
          4.97000000	        -36.16100149	          2.43708315	        -11.68310554	         -6.34983538	         48.83639387	         -6.56784723	          2.94773973	         78.43007552	         12.56554070	
          4.98000000	        -36.23589798	          2.40263929	        -11.63650268	         -6.39515762	         49.03766594	         -6.60337566	          3.20116148	         78.60456715	         12.60728549	
          4.99000000	        -36.30989592	          2.36864709	        -11.58920731	         -6.43978727	         49.23811174	         -6.63838817	          3.45440551	         78.77832491	         12.64988674	
          5.00000000	        -36.38300863	          2.33491477	        -11.54116230	         -6.48386554	         49.43776485	         -6.67281978	          3.70716632	         78.95129001	         12.69301773	
          5.01000000	        -36.45524911	          2.30123369	        -11.49232557	         -6.52754333	         49.63663408	         -6.70659459	          3.95915858	         79.12336558	         12.73636789	
          5.02000000	        -36.52662608	          2.26739142	        -11.44265897	         -6.57097275	         49.83471415	         -6.73963063	          4.21011628	         79.29442724	         12.77963441	
          5.03000000	        -36.59714044	          2.23318368	        -11.39211502	         -6.61429951	         50.03199928	         -6.77184473	          4.45978873	         79.46433371	         12.82250758	
          5.04000000	        -36.66678233	          2.19842434	        -11.34062297	         -6.65765681	         50.22849808	         -6.80315676	          4.70793414	         79.63293641	         12.86465188	
          5.05000000	        -36.73552901	          2.16295285	        -11.28807628	         -6.70116087	         50.42424773	         -6.83349317	          4.95431198	         79.80008747	         12.90568618	
          5.06000000	        -36.80334408	          2.12663892	        -11.23432349	         -6.74490827	         50.61932510	         -6.86278953	          5.19867544	         79.96564548	         12.94516685	
          5.07000000	        -36.87017782	          2.08938442	        -11.17916432	         -6.78897476	         50.81385305	         -6.89099185	          5.44076576	         80.12947910	         12.98257785	
          5.08000000	        -36.93596889	          2.05112293	        -11.12235211	         -6.83341556	         51.00800048	         -6.91805694	          5.68031001	         80.29146835	         13.01733076	
          5.09000000	        -37.00064726	          2.01181704	        -11.06360259	         -6.87826673	         51.20197617	         -6.94395181	          5.91702307	         80.45150437	         13.04877607	
          5.10000000	        -37.06413810	          1.97145408	        -11.00260781	         -6.92354761	         51.39601762	         -6.96865239	          6.15061410	         80.60948799	         13.07622434	
          5.11000000	        -37.12636635	          1.93004058	        -10.93905315	         -6.96926395	         51.59037686	         -6.99214192	          6.38079650	         80.76532802	         13.09897415	
          5.12000000	        -37.18726143	          1.88759627	        -10.87263533	         -7.01541142	         51.78530526	         -7.01440912	          6.60729993	         80.91893952	         13.11634326	
          5.13000000	        -37.24676180	          1.84414817	        -10.80307969	         -7.06197927	         51.98103900	         -7.03544658	          6.82988317	         81.07024260	         13.12769970	
          5.14000000	        -37.30481893	          1.79972532	        -10.73015559	         -7.10895355	         52.17778596	         -7.05524936	          7.04834638	         81.21916158	         13.13249055	
          5.15000000	        -37.36140044	          1.75435428	        -10.65368902	         -7.15632001	         52.37571455	         -7.07381380	          7.26254217	         81.36562437	         13.13026693	
          5.16000000	        -37.41649206	          1.70805529	        -10.57357212	         -7.20406667	         52.57494457	         -7.09113642	          7.47238475	         81.50956152	         13.12070389	
          5.17000000	        -37.47009867	          1.66083885	        -10.48976898	         -7.25218611	         52.77554078	         -7.10721272	          7.67785628	         81.65090507	         13.10361360	
